<?xml version="1.0"?>
<svg xmlns="http://www.w3.org/2000/svg" xmlns:xlink="http://www.w3.org/1999/xlink" shape-rendering="geometricPrecision" data-filename="Close or cancel cross shape" version="1.1" viewBox="0 0 23.333 23.333" class="" width="250" height="250"> <!-- http://icon-download.com - SVG Editor v. 1.0.26 --> <defs><radialGradient id="rgrad_id3c512fc47f51a8" cx="50%" cy="50%" r="100%" gradientUnits="objectBoundingBox"><stop offset="1%" style="stop-color:rgb(243, 112, 255); stop-opacity:1"/><stop offset="56%" style="stop-color:rgb(255, 0, 117); stop-opacity:1"/><stop offset="98%" style="stop-color:rgb(214, 128, 207); stop-opacity:1"/></radialGradient></defs> <rect fill="transparent" class="svgBg" width="98%" height="98%" y="1%" x="1%"/> <g fill="url(#rgrad_id3c512fc47f51a8)" transform="matrix(0.8,0,0,0.8,2.519964,2.519964)" class="svg-pan-zoom_viewport"> <path d="M16.043,11.667L22.609,5.1c0.963-0.963,0.963-2.539,0-3.502l-0.875-0.875c-0.963-0.964-2.539-0.964-3.502,0L11.666,7.29 L5.099,0.723c-0.962-0.963-2.538-0.963-3.501,0L0.722,1.598c-0.962,0.963-0.962,2.539,0,3.502l6.566,6.566l-6.566,6.567 c-0.962,0.963-0.962,2.539,0,3.501l0.876,0.875c0.963,0.963,2.539,0.963,3.501,0l6.567-6.565l6.566,6.565 c0.963,0.963,2.539,0.963,3.502,0l0.875-0.875c0.963-0.963,0.963-2.539,0-3.501L16.043,11.667z"/> </g> </svg>
